<svg xmlns="http://www.w3.org/2000/svg" width="90%" height="auto" viewBox="0 0 252 58.5" style="width:70%; margin:0 auto; display:block; line-height:1;">
  <rect width="280" height="65" fill="transparent" />
  <path d="M33 0V56L125 78V622L33 644V700H559V495H503L463 623H288V393L474 408V309L288 323V78L400 56V0Z" fill="#0070C0" transform="translate(0.000 50.000) scale(0.060000 -0.060000)"/>
  <path d="M30 0V53L115 73V409H30V462L190 500H269V73L354 53V0ZM99 654Q99 693 126.0 719.5Q153 746 192 746Q232 746 258.5 719.5Q285 693 285 654Q285 614 258.5 587.0Q232 560 192 560Q153 560 126.0 587.0Q99 614 99 654Z" fill="#0070C0" transform="translate(34.920 50.000) scale(0.060000 -0.060000)"/>
  <path d="M15 0V53L100 73V709H15V762L175 800H254V73L339 53V0Z" fill="#0070C0" transform="translate(57.060 50.000) scale(0.060000 -0.060000)"/>
  <path d="M28 430V470L198 591H235V495L359 500V430H235V144Q235 95 246.0 75.0Q257 55 291 55Q316 55 358 73L374 17Q314 -15 247 -15Q81 -15 81 139V430Z" fill="#0070C0" transform="translate(78.300 50.000) scale(0.060000 -0.060000)"/>
  <path d="M35 256Q35 374 101.5 444.5Q168 515 282 515Q398 515 457.5 436.0Q517 357 517 241H189Q196 167 242.0 113.5Q288 60 360 60Q414 60 476 83L497 26Q404 -15 315 -15Q186 -15 110.5 60.5Q35 136 35 256ZM189 303 358 314Q358 338 355.0 358.5Q352 379 338 408Q313 450 279 450Q239 450 213 409Q198 384 193.0 354.0Q188 324 189 303Z" fill="#0070C0" transform="translate(100.980 50.000) scale(0.060000 -0.060000)"/>
  <path d="M30 0V53L115 73V409H30V462L190 500H269V440Q344 515 447 515Q453 496 453 473Q453 427 443 387L317 408Q293 397 269 376V73L374 53V0Z" fill="#0070C0" transform="translate(133.680 50.000) scale(0.060000 -0.060000)"/>
  <path d="M429 715Q534 715 624 676V491H568L522 639Q495 643 467 643Q346 643 277.0 568.0Q208 493 208 350Q208 57 447 57Q462 57 476 58V248L362 283V329H713V283L639 248V34Q619 24 592.0 15.0Q565 6 534.0 -0.5Q503 -7 471.0 -11.0Q439 -15 409 -15Q232 -15 137.0 80.0Q42 175 42 350Q42 525 142.0 620.0Q242 715 429 715Z" fill="#C00000" transform="translate(172.000 50.000) scale(0.060000 -0.060000)"/>
  <path d="M49 32V216H105L156 76Q198 61 261 61Q329 61 378.5 85.0Q428 109 428 156Q428 167 425.5 177.0Q423 187 417.0 196.0Q411 205 405.0 212.5Q399 220 387.0 228.5Q375 237 366.0 242.5Q357 248 339.5 257.0Q322 266 278 287L242 304Q143 352 100.0 404.5Q57 457 57 534Q57 616 125.0 665.5Q193 715 301 715Q422 715 519 684V500H463L414 634Q373 643 335 643Q276 643 234.0 622.5Q192 602 192 563Q192 528 225.5 504.5Q259 481 345 443L365 434Q467 388 515.0 332.0Q563 276 563 196Q563 121 525.5 73.5Q488 26 427.0 5.5Q366 -15 288 -15Q164 -15 49 32Z" fill="#C00000" transform="translate(215.740 50.000) scale(0.060000 -0.060000)"/>
</svg>
